<svg xmlns="http://www.w3.org/2000/svg" width="41px" height="40px" viewBox="0 0 71.794 70">
  <path id="Icon_awesome-github" data-name="Icon awesome-github" d="M24.013,56.926c0,.289-.333.521-.753.521-.478.043-.811-.188-.811-.521,0-.289.333-.521.753-.521C23.637,56.362,24.013,56.593,24.013,56.926Zm-4.5-.651c-.1.289.188.622.622.709a.679.679,0,0,0,.9-.289c.087-.289-.188-.622-.622-.753A.743.743,0,0,0,19.512,56.275Zm6.4-.246c-.42.1-.709.376-.666.709.043.289.42.478.854.376s.709-.376.666-.666S26.329,55.986,25.909,56.029ZM35.434.563C15.357.563,0,15.8,0,35.88A36.289,36.289,0,0,0,24.534,70.5c1.853.333,2.5-.811,2.5-1.751,0-.9-.043-5.848-.043-8.887,0,0-10.132,2.171-12.26-4.313,0,0-1.65-4.212-4.024-5.3,0,0-3.315-2.273.232-2.229a7.641,7.641,0,0,1,5.587,3.734c3.17,5.587,8.482,3.98,10.552,3.025A8.045,8.045,0,0,1,29.4,49.906c-8.091-.9-16.255-2.07-16.255-15.994,0-3.981,1.1-5.978,3.416-8.526a13.676,13.676,0,0,1,.376-9.828c3.025-.941,9.987,3.908,9.987,3.908a34.195,34.195,0,0,1,18.18,0s6.962-4.863,9.987-3.908a13.669,13.669,0,0,1,.376,9.828c2.316,2.562,3.734,4.559,3.734,8.526,0,13.968-8.526,15.082-16.617,15.994,1.332,1.143,2.461,3.315,2.461,6.716,0,4.878-.043,10.914-.043,12.1,0,.941.666,2.084,2.5,1.751C61.98,65.669,71.794,51.933,71.794,35.88,71.794,15.8,55.51.563,35.434.563ZM14.069,50.485c-.188.145-.145.478.1.753.232.232.565.333.753.145.188-.145.145-.478-.1-.753C14.59,50.4,14.257,50.3,14.069,50.485Zm-1.563-1.172c-.1.188.043.42.333.565a.431.431,0,0,0,.622-.1c.1-.188-.043-.42-.333-.565C12.839,49.125,12.607,49.168,12.506,49.313Zm4.69,5.153c-.232.188-.145.622.188.9.333.333.753.376.941.145.188-.188.1-.622-.188-.9C17.818,54.278,17.384,54.234,17.2,54.466Zm-1.65-2.128c-.232.145-.232.521,0,.854s.622.478.811.333a.66.66,0,0,0,0-.9C16.154,52.295,15.777,52.15,15.546,52.338Z" transform="translate(0 -0.563)" fill="#fff"/>
</svg>
